<?xml version="1.0" encoding="UTF-8" standalone="no"?><!DOCTYPE svg PUBLIC "-//W3C//DTD SVG 1.1//EN" "http://www.w3.org/Graphics/SVG/1.1/DTD/svg11.dtd"><svg width="100%" height="100%" viewBox="0 0 32 32" version="1.1" xmlns="http://www.w3.org/2000/svg" xmlns:xlink="http://www.w3.org/1999/xlink" xml:space="preserve" xmlns:serif="http://www.serif.com/" style="fill-rule:evenodd;clip-rule:evenodd;stroke-linejoin:round;stroke-miterlimit:1.41421;"><rect id="twitter" x="0" y="0" width="32" height="32" style="fill:none;"/><clipPath id="_clip1"><rect id="twitter1" serif:id="twitter" x="0" y="0" width="32" height="32"/></clipPath><g clip-path="url(#_clip1)"><path d="M11.298,27.566c10.567,0 16.346,-8.754 16.346,-16.346c0,-0.248 0,-0.496 -0.017,-0.742c1.124,-0.813 2.095,-1.82 2.866,-2.974c-1.048,0.465 -2.161,0.769 -3.299,0.904c1.198,-0.718 2.096,-1.847 2.525,-3.177c-1.128,0.669 -2.361,1.14 -3.648,1.394c-1.086,-1.155 -2.603,-1.811 -4.188,-1.811c-3.155,0 -5.751,2.596 -5.751,5.75c0,0.438 0.05,0.874 0.149,1.3c-4.616,-0.231 -8.924,-2.415 -11.839,-6.002c-1.516,2.61 -0.732,5.993 1.778,7.669c-0.914,-0.027 -1.808,-0.274 -2.607,-0.719c0,0.023 0,0.048 0,0.073c0.001,2.724 1.939,5.092 4.609,5.631c-0.846,0.231 -1.733,0.264 -2.594,0.099c0.751,2.334 2.915,3.943 5.367,3.989c-2.034,1.598 -4.548,2.467 -7.134,2.464c-0.458,-0.001 -0.914,-0.029 -1.368,-0.083c2.627,1.686 5.684,2.58 8.805,2.576" style="fill:#1da1f2;fill-rule:nonzero;"/></g></svg>