<?xml version="1.0" encoding="UTF-8" standalone="no"?><!DOCTYPE svg PUBLIC "-//W3C//DTD SVG 1.1//EN" "http://www.w3.org/Graphics/SVG/1.1/DTD/svg11.dtd"><svg width="100%" height="100%" viewBox="0 0 64 64" version="1.1" xmlns="http://www.w3.org/2000/svg" xmlns:xlink="http://www.w3.org/1999/xlink" xml:space="preserve" xmlns:serif="http://www.serif.com/" style="fill-rule:evenodd;clip-rule:evenodd;stroke-linecap:round;stroke-linejoin:round;stroke-miterlimit:1.5;"><path id="view-code" d="M29.172,2.828c0.75,-0.75 1.767,-1.171 2.828,-1.171c1.061,0 2.078,0.421 2.828,1.171c6.068,6.068 20.276,20.276 26.344,26.344c0.75,0.75 1.171,1.767 1.171,2.828c0,1.061 -0.421,2.078 -1.171,2.828c-6.068,6.068 -20.276,20.276 -26.344,26.344c-0.75,0.75 -1.767,1.171 -2.828,1.171c-1.061,0 -2.078,-0.421 -2.828,-1.171c-6.068,-6.068 -20.276,-20.276 -26.344,-26.344c-0.75,-0.75 -1.171,-1.767 -1.171,-2.828c0,-1.061 0.421,-2.078 1.171,-2.828c6.068,-6.068 20.276,-20.276 26.344,-26.344Z" style="fill:#25cddc;"/><clipPath id="_clip1"><path id="view-code1" serif:id="view-code" d="M29.172,2.828c0.75,-0.75 1.767,-1.171 2.828,-1.171c1.061,0 2.078,0.421 2.828,1.171c6.068,6.068 20.276,20.276 26.344,26.344c0.75,0.75 1.171,1.767 1.171,2.828c0,1.061 -0.421,2.078 -1.171,2.828c-6.068,6.068 -20.276,20.276 -26.344,26.344c-0.75,0.75 -1.767,1.171 -2.828,1.171c-1.061,0 -2.078,-0.421 -2.828,-1.171c-6.068,-6.068 -20.276,-20.276 -26.344,-26.344c-0.75,-0.75 -1.171,-1.767 -1.171,-2.828c0,-1.061 0.421,-2.078 1.171,-2.828c6.068,-6.068 20.276,-20.276 26.344,-26.344Z"/></clipPath><g clip-path="url(#_clip1)"><path d="M25,24l-8,8l8,8" style="fill:none;stroke:#fff;stroke-width:6px;"/><path d="M39,40l8,-8l-8,-8" style="fill:none;stroke:#fff;stroke-width:6px;"/></g></svg>