<?xml version="1.0" encoding="UTF-8" standalone="no"?><!DOCTYPE svg PUBLIC "-//W3C//DTD SVG 1.1//EN" "http://www.w3.org/Graphics/SVG/1.1/DTD/svg11.dtd"><svg width="100%" height="100%" viewBox="0 0 32 32" version="1.1" xmlns="http://www.w3.org/2000/svg" xmlns:xlink="http://www.w3.org/1999/xlink" xml:space="preserve" xmlns:serif="http://www.serif.com/" style="fill-rule:evenodd;clip-rule:evenodd;stroke-linejoin:round;stroke-miterlimit:1.41421;"><rect id="github" x="0" y="0" width="32" height="32" style="fill:none;"/><path d="M15.999,2.739c-7.285,0 -13.191,5.906 -13.191,13.192c0,5.828 3.78,10.772 9.022,12.518c0.66,0.12 0.9,-0.287 0.9,-0.637c0,-0.313 -0.011,-1.143 -0.017,-2.243c-3.67,0.797 -4.444,-1.769 -4.444,-1.769c-0.6,-1.523 -1.465,-1.929 -1.465,-1.929c-1.198,-0.819 0.091,-0.802 0.091,-0.802c1.324,0.094 2.02,1.359 2.02,1.359c1.177,2.016 3.088,1.434 3.84,1.097c0.119,-0.853 0.46,-1.434 0.837,-1.764c-2.929,-0.333 -6.009,-1.465 -6.009,-6.52c0,-1.44 0.514,-2.617 1.358,-3.54c-0.136,-0.333 -0.589,-1.674 0.129,-3.491c0,0 1.108,-0.354 3.628,1.353c1.052,-0.293 2.181,-0.439 3.302,-0.444c1.12,0.005 2.249,0.151 3.303,0.444c2.518,-1.707 3.624,-1.353 3.624,-1.353c0.72,1.817 0.267,3.158 0.131,3.491c0.845,0.923 1.356,2.1 1.356,3.54c0,5.068 -3.084,6.183 -6.023,6.509c0.474,0.408 0.896,1.213 0.896,2.444c0,1.763 -0.017,3.186 -0.017,3.618c0,0.353 0.238,0.764 0.907,0.635c5.238,-1.749 9.015,-6.689 9.015,-12.516c0,-7.286 -5.907,-13.192 -13.193,-13.192" style="fill:#080c13;"/></svg>