<?xml version="1.0" encoding="UTF-8" standalone="no"?><!DOCTYPE svg PUBLIC "-//W3C//DTD SVG 1.1//EN" "http://www.w3.org/Graphics/SVG/1.1/DTD/svg11.dtd"><svg width="100%" height="100%" viewBox="0 0 32 32" version="1.1" xmlns="http://www.w3.org/2000/svg" xmlns:xlink="http://www.w3.org/1999/xlink" xml:space="preserve" xmlns:serif="http://www.serif.com/" style="fill-rule:evenodd;clip-rule:evenodd;stroke-linejoin:round;stroke-miterlimit:1.41421;"><rect id="Artboard2" x="0" y="0" width="32" height="32" style="fill:none;"/><path d="M26.162,28l-20.324,0c-0.973,0 -1.762,-0.77 -1.762,-1.719l0,-20.562c0,-0.949 0.789,-1.719 1.762,-1.719l20.324,0c0.973,0 1.762,0.77 1.762,1.719l0,20.562c0,0.948 -0.787,1.717 -1.762,1.719Zm-12.864,-3.91l3.602,0l0,-6.052c0,-0.323 0.024,-0.647 0.119,-0.879c0.26,-0.647 0.853,-1.317 1.848,-1.317c1.303,0 1.825,0.994 1.825,2.451l0,5.797l3.602,0l0,-6.213c0,-3.329 -1.778,-4.878 -4.147,-4.878c-1.913,0 -2.769,1.052 -3.247,1.79l0,0.036l-0.024,0l0.024,-0.036l0,-1.536l-3.602,0c0.047,1.033 0.001,10.75 0,10.837l0,0l0,0Zm-1.993,-10.837l-3.602,0l0,10.837l3.602,0l0,-10.837Zm-1.801,-1.48c1.256,0 2.038,-0.832 2.038,-1.872c-0.024,-1.063 -0.782,-1.872 -2.014,-1.872c-1.233,0 -2.038,0.809 -2.038,1.872c0,1.04 0.782,1.872 1.99,1.872l0.024,0Z" style="fill:#069;"/></svg>