<?xml version="1.0" encoding="UTF-8" standalone="no"?><!DOCTYPE svg PUBLIC "-//W3C//DTD SVG 1.1//EN" "http://www.w3.org/Graphics/SVG/1.1/DTD/svg11.dtd"><svg width="100%" height="100%" viewBox="0 0 60 60" version="1.1" xmlns="http://www.w3.org/2000/svg" xmlns:xlink="http://www.w3.org/1999/xlink" xml:space="preserve" xmlns:serif="http://www.serif.com/" style="fill-rule:evenodd;clip-rule:evenodd;stroke-linejoin:round;stroke-miterlimit:1.41421;"><rect id="tab-apps" x="0" y="0" width="60" height="60" style="fill:none;"/><path d="M16.393,8.805l14.794,-3.964c5.342,-1.432 6.841,-1.833 9.347,-1.676c2.986,0.265 5.717,1.842 7.439,4.294c1.389,2.093 1.791,3.592 3.222,8.934l3.964,14.794c1.432,5.342 1.833,6.841 1.676,9.347c-0.265,2.986 -1.842,5.717 -4.294,7.439c-2.093,1.389 -3.592,1.791 -8.934,3.222l-14.794,3.964c-5.342,1.432 -6.841,1.833 -9.347,1.676c-2.986,-0.265 -5.717,-1.842 -7.439,-4.294c-1.389,-2.093 -1.791,-3.592 -3.222,-8.934l-3.964,-14.794c-1.432,-5.342 -1.833,-6.841 -1.676,-9.347c0.265,-2.986 1.842,-5.717 4.294,-7.439c2.093,-1.389 3.592,-1.791 8.934,-3.222Z" style="fill:#25cddc;"/></svg>