<?xml version="1.0" encoding="UTF-8" standalone="no"?><!DOCTYPE svg PUBLIC "-//W3C//DTD SVG 1.1//EN" "http://www.w3.org/Graphics/SVG/1.1/DTD/svg11.dtd"><svg width="100%" height="100%" viewBox="0 0 60 60" version="1.1" xmlns="http://www.w3.org/2000/svg" xmlns:xlink="http://www.w3.org/1999/xlink" xml:space="preserve" xmlns:serif="http://www.serif.com/" style="fill-rule:evenodd;clip-rule:evenodd;stroke-linejoin:round;stroke-miterlimit:1.41421;"><rect id="tab-design" x="0" y="0" width="60" height="60" style="fill:none;"/><clipPath id="_clip1"><rect id="tab-design1" serif:id="tab-design" x="0" y="0" width="60" height="60"/></clipPath><g clip-path="url(#_clip1)"><path d="M29.346,2.724c2.881,-0.98 6.051,-0.595 8.614,1.046c3.742,2.397 9.269,5.938 13.011,8.335c2.563,1.641 4.238,4.36 4.553,7.387c0.459,4.42 1.137,10.949 1.596,15.369c0.314,3.027 -0.767,6.032 -2.938,8.165c-3.169,3.115 -7.851,7.716 -11.02,10.83c-2.171,2.133 -5.194,3.162 -8.215,2.795c-4.412,-0.536 -10.928,-1.328 -15.339,-1.864c-3.021,-0.367 -5.71,-2.09 -7.307,-4.68c-2.331,-3.783 -5.775,-9.371 -8.106,-13.154c-1.597,-2.591 -1.927,-5.768 -0.897,-8.632c1.504,-4.181 3.726,-10.357 5.23,-14.539c1.03,-2.864 3.308,-5.102 6.19,-6.082c4.207,-1.431 10.421,-3.545 14.628,-4.976Z" style="fill:#fc4667;"/></g></svg>